# xmcd CD database file
#
# Track frame offsets:
#	150
#	5854
#	30235
#	51514
#	75435
#	103432
#	125018
#	138865
#	161804
#	182228
#	204317
#	228993
#	242942
#	266915
#	281438
#
# Disc length: 4025 seconds
#
# Revision: 0
# Processed by: cddbd v1.5.1PL0 Copyright (c) Steve Scherf et al.
# Submitted via: CDex 1.51
#
DISCID=d90fb70f
DTITLE=AQUAMARINE - We are not alone
DYEAR=2004
DGENRE=JPop
TTITLE0=prologue
TTITLE1=彦星の歌
TTITLE2=春宵
TTITLE3=春の天窓
TTITLE4=大輪の花を咲かせて
TTITLE5=この地球について語ろう
TTITLE6=さがみへいやのかぜ（朝）
TTITLE7=夏の大地
TTITLE8=学校
TTITLE9=いちばんぼしここにいるよ
TTITLE10=Dolphin In The Sky
TTITLE11=NGC4565
TTITLE12=Albireo
TTITLE13=We are not alone（宇宙背景輻射）
TTITLE14=Dream
EXTD=YEAR: 2004
EXTT0=
EXTT1=
EXTT2=
EXTT3=
EXTT4=
EXTT5=
EXTT6=
EXTT7=
EXTT8=
EXTT9=
EXTT10=
EXTT11=
EXTT12=
EXTT13=
EXTT14=
PLAYORDER=
